<svg width="1069" height="724" viewBox="0 0 1069 724" fill="none" xmlns="http://www.w3.org/2000/svg">
<rect width="1069" height="724" fill="#E2F3FA"/>
<path d="M276.054 86.9372C275.464 86.3553 274.514 86.3616 273.932 86.9512L264.45 96.5601C263.868 97.1497 263.874 98.0994 264.464 98.6813C265.053 99.2632 266.003 99.257 266.585 98.6673L275.014 90.1261L283.555 98.5552C284.145 99.1371 285.095 99.1308 285.676 98.5412C286.258 97.9515 286.252 97.0018 285.662 96.4199L276.054 86.9372ZM279.5 541.995L276.5 87.995L273.5 88.0148L276.5 542.015L279.5 541.995Z" fill="black"/>
<path d="M277.561 86.9392C276.975 86.3534 276.025 86.3534 275.439 86.9392L265.893 96.4851C265.308 97.0709 265.308 98.0207 265.893 98.6064C266.479 99.1922 267.429 99.1922 268.015 98.6064L276.5 90.1212L284.985 98.6064C285.571 99.1922 286.521 99.1922 287.107 98.6064C287.692 98.0207 287.692 97.0709 287.107 96.4851L277.561 86.9392ZM278 542.01L278 87.9998H275L275 542.01H278Z" fill="black"/>
<path d="M481.5 353.071C481.5 353.899 482.172 354.571 483 354.571H496.5C497.329 354.571 498 353.899 498 353.071C498 352.242 497.329 351.571 496.5 351.571H484.5V339.571C484.5 338.742 483.829 338.071 483 338.071C482.172 338.071 481.5 338.742 481.5 339.571V353.071ZM588.006 245.944L481.94 352.01L484.061 354.132L590.127 248.066L588.006 245.944Z" fill="black"/>
<path d="M828.061 543.066C828.646 542.48 828.646 541.53 828.061 540.944L818.515 531.398C817.929 530.812 816.979 530.812 816.393 531.398C815.808 531.984 815.808 532.934 816.393 533.52L824.879 542.005L816.393 550.49C815.808 551.076 815.808 552.026 816.393 552.611C816.979 553.197 817.929 553.197 818.515 552.611L828.061 543.066ZM277 543.505H827V540.505H277V543.505Z" fill="black"/>
<path d="M215.015 485.64V498.15L221 500.22V506.835L189.545 495.54V488.205L221 476.91V483.57L215.015 485.64ZM209.975 487.35L196.835 491.895L209.975 496.44V487.35ZM189.59 466.388H221V472.688H189.59V466.388ZM215.015 430.181L215.015 442.691L221 444.761V451.376L189.545 440.081V432.746L221 421.451V428.111L215.015 430.181ZM209.975 431.891L196.835 436.436L209.975 440.981L209.975 431.891ZM208.445 418.849C205.925 418.849 203.69 418.354 201.74 417.364C199.79 416.344 198.29 414.964 197.24 413.224C196.19 411.484 195.665 409.549 195.665 407.419C195.665 405.799 196.025 404.254 196.745 402.784C197.435 401.314 198.365 400.144 199.535 399.274H187.7V392.884H221V399.274H217.31C218.54 400.054 219.53 401.149 220.28 402.559C221.03 403.969 221.405 405.604 221.405 407.464C221.405 409.564 220.865 411.484 219.785 413.224C218.705 414.964 217.19 416.344 215.24 417.364C213.26 418.354 210.995 418.849 208.445 418.849ZM208.535 399.229C207.005 399.229 205.7 399.529 204.62 400.129C203.51 400.729 202.67 401.539 202.1 402.559C201.5 403.579 201.2 404.674 201.2 405.844C201.2 407.014 201.485 408.094 202.055 409.084C202.625 410.074 203.465 410.884 204.575 411.514C205.655 412.114 206.945 412.414 208.445 412.414C209.945 412.414 211.265 412.114 212.405 411.514C213.515 410.884 214.37 410.074 214.97 409.084C215.57 408.064 215.87 406.984 215.87 405.844C215.87 404.674 215.585 403.579 215.015 402.559C214.415 401.539 213.575 400.729 212.495 400.129C211.385 399.529 210.065 399.229 208.535 399.229ZM215.195 376.336L196.07 370.036V363.331L221 372.556V380.206L196.07 389.386V382.636L215.195 376.336ZM208.445 361.412C205.925 361.412 203.69 360.917 201.74 359.927C199.79 358.907 198.29 357.542 197.24 355.832C196.19 354.092 195.665 352.157 195.665 350.027C195.665 348.167 196.04 346.547 196.79 345.167C197.54 343.757 198.485 342.632 199.625 341.792H196.07V335.447H221V341.792H217.355C218.525 342.602 219.5 343.727 220.28 345.167C221.03 346.577 221.405 348.212 221.405 350.072C221.405 352.172 220.865 354.092 219.785 355.832C218.705 357.542 217.19 358.907 215.24 359.927C213.26 360.917 210.995 361.412 208.445 361.412ZM208.535 341.792C207.005 341.792 205.7 342.092 204.62 342.692C203.51 343.292 202.67 344.102 202.1 345.122C201.5 346.142 201.2 347.237 201.2 348.407C201.2 349.577 201.485 350.657 202.055 351.647C202.625 352.637 203.465 353.447 204.575 354.077C205.655 354.677 206.945 354.977 208.445 354.977C209.945 354.977 211.265 354.677 212.405 354.077C213.515 353.447 214.37 352.637 214.97 351.647C215.57 350.627 215.87 349.547 215.87 348.407C215.87 347.237 215.585 346.142 215.015 345.122C214.415 344.102 213.575 343.292 212.495 342.692C211.385 342.092 210.065 341.792 208.535 341.792ZM195.71 315.479C195.71 312.509 196.655 310.109 198.545 308.279C200.405 306.449 203.015 305.534 206.375 305.534H221V311.834H207.23C205.25 311.834 203.735 312.329 202.685 313.319C201.605 314.309 201.065 315.659 201.065 317.369C201.065 319.109 201.605 320.489 202.685 321.509C203.735 322.499 205.25 322.994 207.23 322.994H221V329.294H196.07V322.994H199.175C198.095 322.154 197.255 321.089 196.655 319.799C196.025 318.479 195.71 317.039 195.71 315.479ZM208.535 301.163C205.955 301.163 203.705 300.638 201.785 299.588C199.835 298.538 198.335 297.083 197.285 295.223C196.205 293.363 195.665 291.233 195.665 288.833C195.665 285.743 196.445 283.193 198.005 281.183C199.535 279.143 201.695 277.778 204.485 277.088V283.883C203.405 284.243 202.565 284.858 201.965 285.728C201.335 286.568 201.02 287.618 201.02 288.878C201.02 290.678 201.68 292.103 203 293.153C204.29 294.203 206.135 294.728 208.535 294.728C210.905 294.728 212.75 294.203 214.07 293.153C215.36 292.103 216.005 290.678 216.005 288.878C216.005 286.328 214.865 284.663 212.585 283.883V277.088C215.285 277.778 217.43 279.143 219.02 281.183C220.61 283.223 221.405 285.773 221.405 288.833C221.405 291.233 220.88 293.363 219.83 295.223C218.75 297.083 217.25 298.538 215.33 299.588C213.38 300.638 211.115 301.163 208.535 301.163ZM207.995 249.298C208.895 249.298 209.705 249.358 210.425 249.478V267.703C212.225 267.553 213.635 266.923 214.655 265.813C215.675 264.703 216.185 263.338 216.185 261.718C216.185 259.378 215.18 257.713 213.17 256.723V249.928C215.57 250.648 217.55 252.028 219.11 254.068C220.64 256.108 221.405 258.613 221.405 261.583C221.405 263.983 220.88 266.143 219.83 268.063C218.75 269.953 217.235 271.438 215.285 272.518C213.335 273.568 211.085 274.093 208.535 274.093C205.955 274.093 203.69 273.568 201.74 272.518C199.79 271.468 198.29 269.998 197.24 268.108C196.19 266.218 195.665 264.043 195.665 261.583C195.665 259.213 196.175 257.098 197.195 255.238C198.215 253.348 199.67 251.893 201.56 250.873C203.42 249.823 205.565 249.298 207.995 249.298ZM206.195 255.823C204.575 255.853 203.285 256.438 202.325 257.578C201.335 258.718 200.84 260.113 200.84 261.763C200.84 263.323 201.32 264.643 202.28 265.723C203.21 266.773 204.515 267.418 206.195 267.658V255.823ZM195.71 213.74C195.71 210.68 196.655 208.22 198.545 206.36C200.405 204.47 203.015 203.525 206.375 203.525H221L221 209.825H207.23C205.28 209.825 203.795 210.32 202.775 211.31C201.725 212.3 201.2 213.65 201.2 215.36C201.2 217.07 201.725 218.435 202.775 219.455C203.795 220.445 205.28 220.94 207.23 220.94H221V227.24H207.23C205.28 227.24 203.795 227.735 202.775 228.725C201.725 229.715 201.2 231.065 201.2 232.775C201.2 234.515 201.725 235.895 202.775 236.915C203.795 237.905 205.28 238.4 207.23 238.4H221V244.7H196.07V238.4H199.085C198.035 237.59 197.21 236.555 196.61 235.295C196.01 234.005 195.71 232.595 195.71 231.065C195.71 229.115 196.13 227.375 196.97 225.845C197.78 224.315 198.95 223.13 200.48 222.29C199.04 221.48 197.885 220.31 197.015 218.78C196.145 217.22 195.71 215.54 195.71 213.74ZM207.995 174.371C208.895 174.371 209.705 174.431 210.425 174.551V192.776C212.225 192.626 213.635 191.996 214.655 190.886C215.675 189.776 216.185 188.411 216.185 186.791C216.185 184.451 215.18 182.786 213.17 181.796V175.001C215.57 175.721 217.55 177.101 219.11 179.141C220.64 181.181 221.405 183.686 221.405 186.656C221.405 189.056 220.88 191.216 219.83 193.136C218.75 195.026 217.235 196.511 215.285 197.591C213.335 198.641 211.085 199.166 208.535 199.166C205.955 199.166 203.69 198.641 201.74 197.591C199.79 196.541 198.29 195.071 197.24 193.181C196.19 191.291 195.665 189.116 195.665 186.656C195.665 184.286 196.175 182.171 197.195 180.311C198.215 178.421 199.67 176.966 201.56 175.946C203.42 174.896 205.565 174.371 207.995 174.371ZM206.195 180.896C204.575 180.926 203.285 181.511 202.325 182.651C201.335 183.791 200.84 185.186 200.84 186.836C200.84 188.396 201.32 189.716 202.28 190.796C203.21 191.846 204.515 192.491 206.195 192.731V180.896ZM195.71 155.958C195.71 152.988 196.655 150.588 198.545 148.758C200.405 146.928 203.015 146.013 206.375 146.013H221V152.313H207.23C205.25 152.313 203.735 152.808 202.685 153.798C201.605 154.788 201.065 156.138 201.065 157.848C201.065 159.588 201.605 160.968 202.685 161.988C203.735 162.978 205.25 163.473 207.23 163.473H221V169.773H196.07V163.473H199.175C198.095 162.633 197.255 161.568 196.655 160.278C196.025 158.958 195.71 157.518 195.71 155.958ZM201.245 132.687H213.305C214.145 132.687 214.76 132.492 215.15 132.102C215.51 131.682 215.69 130.992 215.69 130.032V127.107H221V131.067C221 136.377 218.42 139.032 213.26 139.032H201.245V142.002H196.07V139.032H189.905V132.687H196.07V127.107H201.245V132.687Z" fill="black"/>
<path d="M514.32 596.595L502.8 628.005H495.15L483.63 596.595H490.38L499.02 621.57L507.615 596.595H514.32ZM516.477 615.45C516.477 612.93 516.972 610.695 517.962 608.745C518.982 606.795 520.347 605.295 522.057 604.245C523.797 603.195 525.732 602.67 527.862 602.67C529.722 602.67 531.342 603.045 532.722 603.795C534.132 604.545 535.257 605.49 536.097 606.63V603.075H542.442V628.005H536.097V624.36C535.287 625.53 534.162 626.505 532.722 627.285C531.312 628.035 529.677 628.41 527.817 628.41C525.717 628.41 523.797 627.87 522.057 626.79C520.347 625.71 518.982 624.195 517.962 622.245C516.972 620.265 516.477 618 516.477 615.45ZM536.097 615.54C536.097 614.01 535.797 612.705 535.197 611.625C534.597 610.515 533.787 609.675 532.767 609.105C531.747 608.505 530.652 608.205 529.482 608.205C528.312 608.205 527.232 608.49 526.242 609.06C525.252 609.63 524.442 610.47 523.812 611.58C523.212 612.66 522.912 613.95 522.912 615.45C522.912 616.95 523.212 618.27 523.812 619.41C524.442 620.52 525.252 621.375 526.242 621.975C527.262 622.575 528.342 622.875 529.482 622.875C530.652 622.875 531.747 622.59 532.767 622.02C533.787 621.42 534.597 620.58 535.197 619.5C535.797 618.39 536.097 617.07 536.097 615.54ZM554.895 594.705V628.005H548.595V594.705H554.895ZM584.655 603.075V628.005H578.31V624.855C577.5 625.935 576.435 626.79 575.115 627.42C573.825 628.02 572.415 628.32 570.885 628.32C568.935 628.32 567.21 627.915 565.71 627.105C564.21 626.265 563.025 625.05 562.155 623.46C561.315 621.84 560.895 619.92 560.895 617.7V603.075H567.195V616.8C567.195 618.78 567.69 620.31 568.68 621.39C569.67 622.44 571.02 622.965 572.73 622.965C574.47 622.965 575.835 622.44 576.825 621.39C577.815 620.31 578.31 618.78 578.31 616.8V603.075H584.655ZM614.046 615C614.046 615.9 613.986 616.71 613.866 617.43H595.641C595.791 619.23 596.421 620.64 597.531 621.66C598.641 622.68 600.006 623.19 601.626 623.19C603.966 623.19 605.631 622.185 606.621 620.175H613.416C612.696 622.575 611.316 624.555 609.276 626.115C607.236 627.645 604.731 628.41 601.761 628.41C599.361 628.41 597.201 627.885 595.281 626.835C593.391 625.755 591.906 624.24 590.826 622.29C589.776 620.34 589.251 618.09 589.251 615.54C589.251 612.96 589.776 610.695 590.826 608.745C591.876 606.795 593.346 605.295 595.236 604.245C597.126 603.195 599.301 602.67 601.761 602.67C604.131 602.67 606.246 603.18 608.106 604.2C609.996 605.22 611.451 606.675 612.471 608.565C613.521 610.425 614.046 612.57 614.046 615ZM607.521 613.2C607.491 611.58 606.906 610.29 605.766 609.33C604.626 608.34 603.231 607.845 601.581 607.845C600.021 607.845 598.701 608.325 597.621 609.285C596.571 610.215 595.926 611.52 595.686 613.2H607.521Z" fill="black"/>
<path d="M615.2 195.58V213.005H612.925V195.58H615.2ZM625.752 199.055C627.419 199.055 628.769 199.563 629.802 200.58C630.836 201.58 631.352 203.03 631.352 204.93V213.005H629.102V205.255C629.102 203.888 628.761 202.847 628.077 202.13C627.394 201.397 626.461 201.03 625.277 201.03C624.077 201.03 623.119 201.405 622.402 202.155C621.702 202.905 621.352 203.997 621.352 205.43V213.005H619.077V199.305H621.352V201.255C621.802 200.555 622.411 200.013 623.177 199.63C623.961 199.247 624.819 199.055 625.752 199.055ZM636.244 197.08C635.81 197.08 635.444 196.93 635.144 196.63C634.844 196.33 634.694 195.963 634.694 195.53C634.694 195.097 634.844 194.73 635.144 194.43C635.444 194.13 635.81 193.98 636.244 193.98C636.66 193.98 637.01 194.13 637.294 194.43C637.594 194.73 637.744 195.097 637.744 195.53C637.744 195.963 637.594 196.33 637.294 196.63C637.01 196.93 636.66 197.08 636.244 197.08ZM637.344 199.305V213.005H635.069V199.305H637.344ZM643.996 201.18V209.255C643.996 209.922 644.138 210.397 644.421 210.68C644.704 210.947 645.196 211.08 645.896 211.08H647.571V213.005H645.521C644.254 213.005 643.304 212.713 642.671 212.13C642.038 211.547 641.721 210.588 641.721 209.255V201.18H639.946V199.305H641.721V195.855H643.996V199.305H647.571V201.18H643.996ZM651.502 197.08C651.069 197.08 650.702 196.93 650.402 196.63C650.102 196.33 649.952 195.963 649.952 195.53C649.952 195.097 650.102 194.73 650.402 194.43C650.702 194.13 651.069 193.98 651.502 193.98C651.919 193.98 652.269 194.13 652.552 194.43C652.852 194.73 653.002 195.097 653.002 195.53C653.002 195.963 652.852 196.33 652.552 196.63C652.269 196.93 651.919 197.08 651.502 197.08ZM652.602 199.305V213.005H650.327V199.305H652.602ZM655.63 206.105C655.63 204.705 655.913 203.48 656.48 202.43C657.046 201.363 657.821 200.538 658.805 199.955C659.805 199.372 660.913 199.08 662.13 199.08C663.33 199.08 664.371 199.338 665.255 199.855C666.138 200.372 666.796 201.022 667.23 201.805V199.305H669.53V213.005H667.23V210.455C666.78 211.255 666.105 211.922 665.205 212.455C664.321 212.972 663.288 213.23 662.105 213.23C660.888 213.23 659.788 212.93 658.805 212.33C657.821 211.73 657.046 210.888 656.48 209.805C655.913 208.722 655.63 207.488 655.63 206.105ZM667.23 206.13C667.23 205.097 667.021 204.197 666.605 203.43C666.188 202.663 665.621 202.08 664.905 201.68C664.205 201.263 663.43 201.055 662.58 201.055C661.73 201.055 660.955 201.255 660.255 201.655C659.555 202.055 658.996 202.638 658.58 203.405C658.163 204.172 657.955 205.072 657.955 206.105C657.955 207.155 658.163 208.072 658.58 208.855C658.996 209.622 659.555 210.213 660.255 210.63C660.955 211.03 661.73 211.23 662.58 211.23C663.43 211.23 664.205 211.03 664.905 210.63C665.621 210.213 666.188 209.622 666.605 208.855C667.021 208.072 667.23 207.163 667.23 206.13ZM675.649 194.505V213.005H673.374V194.505H675.649ZM685.342 204.28C685.342 202.58 685.725 201.055 686.492 199.705C687.258 198.338 688.3 197.272 689.617 196.505C690.95 195.738 692.425 195.355 694.042 195.355C695.942 195.355 697.6 195.813 699.017 196.73C700.433 197.647 701.467 198.947 702.117 200.63H699.392C698.908 199.58 698.208 198.772 697.292 198.205C696.392 197.638 695.308 197.355 694.042 197.355C692.825 197.355 691.733 197.638 690.767 198.205C689.8 198.772 689.042 199.58 688.492 200.63C687.942 201.663 687.667 202.88 687.667 204.28C687.667 205.663 687.942 206.88 688.492 207.93C689.042 208.963 689.8 209.763 690.767 210.33C691.733 210.897 692.825 211.18 694.042 211.18C695.308 211.18 696.392 210.905 697.292 210.355C698.208 209.788 698.908 208.98 699.392 207.93H702.117C701.467 209.597 700.433 210.888 699.017 211.805C697.6 212.705 695.942 213.155 694.042 213.155C692.425 213.155 690.95 212.78 689.617 212.03C688.3 211.263 687.258 210.205 686.492 208.855C685.725 207.505 685.342 205.98 685.342 204.28ZM711.478 213.23C710.195 213.23 709.028 212.938 707.978 212.355C706.945 211.772 706.128 210.947 705.528 209.88C704.945 208.797 704.653 207.547 704.653 206.13C704.653 204.73 704.953 203.497 705.553 202.43C706.17 201.347 707.003 200.522 708.053 199.955C709.103 199.372 710.278 199.08 711.578 199.08C712.878 199.08 714.053 199.372 715.103 199.955C716.153 200.522 716.978 201.338 717.578 202.405C718.195 203.472 718.503 204.713 718.503 206.13C718.503 207.547 718.186 208.797 717.553 209.88C716.936 210.947 716.095 211.772 715.028 212.355C713.961 212.938 712.778 213.23 711.478 213.23ZM711.478 211.23C712.295 211.23 713.061 211.038 713.778 210.655C714.495 210.272 715.07 209.697 715.503 208.93C715.953 208.163 716.178 207.23 716.178 206.13C716.178 205.03 715.961 204.097 715.528 203.33C715.095 202.563 714.528 201.997 713.828 201.63C713.128 201.247 712.37 201.055 711.553 201.055C710.72 201.055 709.953 201.247 709.253 201.63C708.57 201.997 708.02 202.563 707.603 203.33C707.186 204.097 706.978 205.03 706.978 206.13C706.978 207.247 707.178 208.188 707.578 208.955C707.995 209.722 708.545 210.297 709.228 210.68C709.911 211.047 710.661 211.23 711.478 211.23ZM728.169 199.055C729.836 199.055 731.186 199.563 732.219 200.58C733.253 201.58 733.769 203.03 733.769 204.93V213.005H731.519V205.255C731.519 203.888 731.178 202.847 730.494 202.13C729.811 201.397 728.878 201.03 727.694 201.03C726.494 201.03 725.536 201.405 724.819 202.155C724.119 202.905 723.769 203.997 723.769 205.43V213.005H721.494V199.305H723.769V201.255C724.219 200.555 724.828 200.013 725.594 199.63C726.378 199.247 727.236 199.055 728.169 199.055ZM736.636 206.13C736.636 204.713 736.919 203.48 737.486 202.43C738.052 201.363 738.836 200.538 739.836 199.955C740.852 199.372 742.011 199.08 743.311 199.08C744.994 199.08 746.377 199.488 747.461 200.305C748.561 201.122 749.286 202.255 749.636 203.705H747.186C746.952 202.872 746.494 202.213 745.811 201.73C745.144 201.247 744.311 201.005 743.311 201.005C742.011 201.005 740.961 201.455 740.161 202.355C739.361 203.238 738.961 204.497 738.961 206.13C738.961 207.78 739.361 209.055 740.161 209.955C740.961 210.855 742.011 211.305 743.311 211.305C744.311 211.305 745.144 211.072 745.811 210.605C746.477 210.138 746.936 209.472 747.186 208.605H749.636C749.269 210.005 748.536 211.13 747.436 211.98C746.336 212.813 744.961 213.23 743.311 213.23C742.011 213.23 740.852 212.938 739.836 212.355C738.836 211.772 738.052 210.947 737.486 209.88C736.919 208.813 736.636 207.563 736.636 206.13ZM765.171 205.63C765.171 206.063 765.146 206.522 765.096 207.005H754.146C754.229 208.355 754.688 209.413 755.521 210.18C756.371 210.93 757.396 211.305 758.596 211.305C759.579 211.305 760.396 211.08 761.046 210.63C761.713 210.163 762.179 209.547 762.446 208.78H764.896C764.529 210.097 763.796 211.172 762.696 212.005C761.596 212.822 760.229 213.23 758.596 213.23C757.296 213.23 756.129 212.938 755.096 212.355C754.079 211.772 753.279 210.947 752.696 209.88C752.113 208.797 751.821 207.547 751.821 206.13C751.821 204.713 752.104 203.472 752.671 202.405C753.238 201.338 754.029 200.522 755.046 199.955C756.079 199.372 757.263 199.08 758.596 199.08C759.896 199.08 761.046 199.363 762.046 199.93C763.046 200.497 763.813 201.28 764.346 202.28C764.896 203.263 765.171 204.38 765.171 205.63ZM762.821 205.155C762.821 204.288 762.629 203.547 762.246 202.93C761.863 202.297 761.338 201.822 760.671 201.505C760.021 201.172 759.296 201.005 758.496 201.005C757.346 201.005 756.363 201.372 755.546 202.105C754.746 202.838 754.288 203.855 754.171 205.155H762.821ZM770.449 201.83C770.899 201.047 771.566 200.397 772.449 199.88C773.349 199.347 774.391 199.08 775.574 199.08C776.791 199.08 777.891 199.372 778.874 199.955C779.874 200.538 780.657 201.363 781.224 202.43C781.791 203.48 782.074 204.705 782.074 206.105C782.074 207.488 781.791 208.722 781.224 209.805C780.657 210.888 779.874 211.73 778.874 212.33C777.891 212.93 776.791 213.23 775.574 213.23C774.407 213.23 773.374 212.972 772.474 212.455C771.591 211.922 770.916 211.263 770.449 210.48V219.505H768.174V199.305H770.449V201.83ZM779.749 206.105C779.749 205.072 779.541 204.172 779.124 203.405C778.707 202.638 778.141 202.055 777.424 201.655C776.724 201.255 775.949 201.055 775.099 201.055C774.266 201.055 773.491 201.263 772.774 201.68C772.074 202.08 771.507 202.672 771.074 203.455C770.657 204.222 770.449 205.113 770.449 206.13C770.449 207.163 770.657 208.072 771.074 208.855C771.507 209.622 772.074 210.213 772.774 210.63C773.491 211.03 774.266 211.23 775.099 211.23C775.949 211.23 776.724 211.03 777.424 210.63C778.141 210.213 778.707 209.622 779.124 208.855C779.541 208.072 779.749 207.155 779.749 206.105ZM787.844 201.18V209.255C787.844 209.922 787.985 210.397 788.269 210.68C788.552 210.947 789.044 211.08 789.744 211.08H791.419V213.005H789.369C788.102 213.005 787.152 212.713 786.519 212.13C785.885 211.547 785.569 210.588 785.569 209.255V201.18H783.794V199.305H785.569V195.855H787.844V199.305H791.419V201.18H787.844Z" fill="black"/>
<path d="M361.6 451.705V469.005H359.325V456.105L353.575 469.005H351.975L346.2 456.08V469.005H343.925V451.705H346.375L352.775 466.005L359.175 451.705H361.6ZM379.858 451.58L373.283 469.005H370.658L364.083 451.58H366.508L371.983 466.605L377.458 451.58H379.858ZM394.003 456.68C394.003 458.13 393.503 459.338 392.503 460.305C391.519 461.255 390.011 461.73 387.978 461.73H384.628V469.005H382.353V451.58H387.978C389.944 451.58 391.436 452.055 392.453 453.005C393.486 453.955 394.003 455.18 394.003 456.68ZM387.978 459.855C389.244 459.855 390.178 459.58 390.778 459.03C391.378 458.48 391.678 457.697 391.678 456.68C391.678 454.53 390.444 453.455 387.978 453.455H384.628V459.855H387.978ZM402.645 460.28C402.645 458.58 403.029 457.055 403.795 455.705C404.562 454.338 405.604 453.272 406.92 452.505C408.254 451.738 409.729 451.355 411.345 451.355C413.245 451.355 414.904 451.813 416.32 452.73C417.737 453.647 418.77 454.947 419.42 456.63H416.695C416.212 455.58 415.512 454.772 414.595 454.205C413.695 453.638 412.612 453.355 411.345 453.355C410.129 453.355 409.037 453.638 408.07 454.205C407.104 454.772 406.345 455.58 405.795 456.63C405.245 457.663 404.97 458.88 404.97 460.28C404.97 461.663 405.245 462.88 405.795 463.93C406.345 464.963 407.104 465.763 408.07 466.33C409.037 466.897 410.129 467.18 411.345 467.18C412.612 467.18 413.695 466.905 414.595 466.355C415.512 465.788 416.212 464.98 416.695 463.93H419.42C418.77 465.597 417.737 466.888 416.32 467.805C414.904 468.705 413.245 469.155 411.345 469.155C409.729 469.155 408.254 468.78 406.92 468.03C405.604 467.263 404.562 466.205 403.795 464.855C403.029 463.505 402.645 461.98 402.645 460.28ZM428.782 469.23C427.499 469.23 426.332 468.938 425.282 468.355C424.249 467.772 423.432 466.947 422.832 465.88C422.249 464.797 421.957 463.547 421.957 462.13C421.957 460.73 422.257 459.497 422.857 458.43C423.474 457.347 424.307 456.522 425.357 455.955C426.407 455.372 427.582 455.08 428.882 455.08C430.182 455.08 431.357 455.372 432.407 455.955C433.457 456.522 434.282 457.338 434.882 458.405C435.499 459.472 435.807 460.713 435.807 462.13C435.807 463.547 435.49 464.797 434.857 465.88C434.24 466.947 433.399 467.772 432.332 468.355C431.265 468.938 430.082 469.23 428.782 469.23ZM428.782 467.23C429.599 467.23 430.365 467.038 431.082 466.655C431.799 466.272 432.374 465.697 432.807 464.93C433.257 464.163 433.482 463.23 433.482 462.13C433.482 461.03 433.265 460.097 432.832 459.33C432.399 458.563 431.832 457.997 431.132 457.63C430.432 457.247 429.674 457.055 428.857 457.055C428.024 457.055 427.257 457.247 426.557 457.63C425.874 457.997 425.324 458.563 424.907 459.33C424.49 460.097 424.282 461.03 424.282 462.13C424.282 463.247 424.482 464.188 424.882 464.955C425.299 465.722 425.849 466.297 426.532 466.68C427.215 467.047 427.965 467.23 428.782 467.23ZM445.473 455.055C447.14 455.055 448.49 455.563 449.523 456.58C450.556 457.58 451.073 459.03 451.073 460.93V469.005H448.823V461.255C448.823 459.888 448.481 458.847 447.798 458.13C447.115 457.397 446.181 457.03 444.998 457.03C443.798 457.03 442.84 457.405 442.123 458.155C441.423 458.905 441.073 459.997 441.073 461.43V469.005H438.798V455.305H441.073V457.255C441.523 456.555 442.131 456.013 442.898 455.63C443.681 455.247 444.54 455.055 445.473 455.055ZM453.939 462.13C453.939 460.713 454.223 459.48 454.789 458.43C455.356 457.363 456.139 456.538 457.139 455.955C458.156 455.372 459.314 455.08 460.614 455.08C462.298 455.08 463.681 455.488 464.764 456.305C465.864 457.122 466.589 458.255 466.939 459.705H464.489C464.256 458.872 463.798 458.213 463.114 457.73C462.448 457.247 461.614 457.005 460.614 457.005C459.314 457.005 458.264 457.455 457.464 458.355C456.664 459.238 456.264 460.497 456.264 462.13C456.264 463.78 456.664 465.055 457.464 465.955C458.264 466.855 459.314 467.305 460.614 467.305C461.614 467.305 462.448 467.072 463.114 466.605C463.781 466.138 464.239 465.472 464.489 464.605H466.939C466.573 466.005 465.839 467.13 464.739 467.98C463.639 468.813 462.264 469.23 460.614 469.23C459.314 469.23 458.156 468.938 457.139 468.355C456.139 467.772 455.356 466.947 454.789 465.88C454.223 464.813 453.939 463.563 453.939 462.13ZM482.475 461.63C482.475 462.063 482.45 462.522 482.4 463.005H471.45C471.533 464.355 471.991 465.413 472.825 466.18C473.675 466.93 474.7 467.305 475.9 467.305C476.883 467.305 477.7 467.08 478.35 466.63C479.016 466.163 479.483 465.547 479.75 464.78H482.2C481.833 466.097 481.1 467.172 480 468.005C478.9 468.822 477.533 469.23 475.9 469.23C474.6 469.23 473.433 468.938 472.4 468.355C471.383 467.772 470.583 466.947 470 465.88C469.416 464.797 469.125 463.547 469.125 462.13C469.125 460.713 469.408 459.472 469.975 458.405C470.541 457.338 471.333 456.522 472.35 455.955C473.383 455.372 474.566 455.08 475.9 455.08C477.2 455.08 478.35 455.363 479.35 455.93C480.35 456.497 481.116 457.28 481.65 458.28C482.2 459.263 482.475 460.38 482.475 461.63ZM480.125 461.155C480.125 460.288 479.933 459.547 479.55 458.93C479.166 458.297 478.641 457.822 477.975 457.505C477.325 457.172 476.6 457.005 475.8 457.005C474.65 457.005 473.666 457.372 472.85 458.105C472.05 458.838 471.591 459.855 471.475 461.155H480.125ZM487.753 457.83C488.203 457.047 488.869 456.397 489.753 455.88C490.653 455.347 491.694 455.08 492.878 455.08C494.094 455.08 495.194 455.372 496.178 455.955C497.178 456.538 497.961 457.363 498.528 458.43C499.094 459.48 499.378 460.705 499.378 462.105C499.378 463.488 499.094 464.722 498.528 465.805C497.961 466.888 497.178 467.73 496.178 468.33C495.194 468.93 494.094 469.23 492.878 469.23C491.711 469.23 490.678 468.972 489.778 468.455C488.894 467.922 488.219 467.263 487.753 466.48V475.505H485.478V455.305H487.753V457.83ZM497.053 462.105C497.053 461.072 496.844 460.172 496.428 459.405C496.011 458.638 495.444 458.055 494.728 457.655C494.028 457.255 493.253 457.055 492.403 457.055C491.569 457.055 490.794 457.263 490.078 457.68C489.378 458.08 488.811 458.672 488.378 459.455C487.961 460.222 487.753 461.113 487.753 462.13C487.753 463.163 487.961 464.072 488.378 464.855C488.811 465.622 489.378 466.213 490.078 466.63C490.794 467.03 491.569 467.23 492.403 467.23C493.253 467.23 494.028 467.03 494.728 466.63C495.444 466.213 496.011 465.622 496.428 464.855C496.844 464.072 497.053 463.155 497.053 462.105ZM505.147 457.18V465.255C505.147 465.922 505.289 466.397 505.572 466.68C505.856 466.947 506.347 467.08 507.047 467.08H508.722V469.005H506.672C505.406 469.005 504.456 468.713 503.822 468.13C503.189 467.547 502.872 466.588 502.872 465.255V457.18H501.097V455.305H502.872V451.855H505.147V455.305H508.722V457.18H505.147Z" fill="black"/>
<circle cx="701" cy="154.005" r="20" fill="#C4C4C4"/>
<circle cx="701" cy="154.005" r="20" fill="#C4C4C4"/>
<circle cx="701" cy="154.005" r="20" fill="#C4C4C4"/>
<circle cx="701" cy="154.005" r="20" fill="#C4C4C4"/>
<circle cx="420" cy="411.005" r="20" fill="#C4C4C4"/>
<circle cx="420" cy="411.005" r="20" fill="#197FE6"/>
</svg>
